<?xml version="1.0" encoding="utf-8"?>
<!-- Generator: Adobe Illustrator 15.0.0, SVG Export Plug-In . SVG Version: 6.00 Build 0)  -->
<!DOCTYPE svg PUBLIC "-//W3C//DTD SVG 1.1//EN" "http://www.w3.org/Graphics/SVG/1.1/DTD/svg11.dtd">
<svg version="1.1" id="Layer_1" xmlns="http://www.w3.org/2000/svg" xmlns:xlink="http://www.w3.org/1999/xlink" x="0px" y="0px"
	 width="149.35px" height="57.68px" viewBox="0 0 149.35 57.68" enable-background="new 0 0 149.35 57.68" xml:space="preserve">
<g>
	<path fill="#FFFFFF" d="M6.664,22.54c-1.55,0-2.614-0.499-3.192-1.498c-0.579-0.999-0.868-2.739-0.868-5.223v-5.235H0v-2.66
		L2.604,7.56V3.695L6.72,2.939v4.62h3.92v3.024H6.72v6.328c0,0.934,0.103,1.587,0.308,1.96c0.205,0.373,0.597,0.56,1.176,0.56
		c0.672,0,1.409-0.214,2.212-0.644l1.008,2.016C9.781,21.961,8.194,22.54,6.664,22.54z"/>
	<path fill="#FFFFFF" d="M12.74,7.363l6.356-0.224v12.18l1.96,0.7v2.24H12.74v-2.24l2.24-0.7v-9.155l-2.24-0.561V7.363z
		 M14.448,2.52c0-0.765,0.238-1.376,0.714-1.834C15.638,0.229,16.202,0,16.856,0c1.568,0,2.352,0.84,2.352,2.52
		c0,0.784-0.238,1.405-0.714,1.862c-0.476,0.458-1.022,0.686-1.638,0.686c-0.766,0-1.358-0.219-1.778-0.657
		S14.448,3.342,14.448,2.52z"/>
	<path fill="#FFFFFF" d="M22.764,7.363L28.56,7.14l0.196,1.932c0.205-0.168,0.476-0.368,0.812-0.602s0.956-0.551,1.862-0.952
		c0.905-0.401,1.731-0.602,2.478-0.602c1.344,0,2.375,0.443,3.094,1.33s1.078,2.104,1.078,3.653v7.42
		c0.243,0.075,0.588,0.196,1.036,0.364c0.448,0.168,0.756,0.28,0.924,0.336v2.24h-7.56v-2.24l1.484-0.7v-6.775
		c0-0.653-0.173-1.19-0.518-1.61c-0.346-0.42-0.808-0.63-1.386-0.63c-0.522,0-1.032,0.136-1.526,0.406
		c-0.495,0.271-0.864,0.536-1.106,0.798l-0.364,0.392v7.42l1.456,0.7v2.24h-7.756v-2.24l2.156-0.7v-9.155l-2.156-0.561V7.363z"/>
	<path fill="#FFFFFF" d="M45.751,22.288l-4.984-12.32L39.283,9.52v-2.24l7.476-0.14v2.38L45.191,9.8l2.492,7.84l2.38-7.756
		L48.439,9.52v-2.24l7.532-0.14v2.38l-1.736,0.364l-4.116,11.479c-0.411,1.102-0.798,2.03-1.162,2.786
		c-0.364,0.757-0.845,1.54-1.442,2.353c-0.598,0.812-1.316,1.428-2.156,1.848s-1.792,0.63-2.856,0.63l-2.716-0.224l0.392-2.996h1.82
		c0.522,0,1.003-0.117,1.442-0.35c0.438-0.234,0.812-0.57,1.12-1.009s0.536-0.798,0.686-1.077
		C45.396,23.044,45.564,22.698,45.751,22.288z"/>
	<path fill="#FFFFFF" d="M58.911,10.164l-2.24-0.561v-2.24l5.88-0.224l0.252,1.568c0.149-0.131,0.35-0.299,0.602-0.504
		s0.737-0.48,1.456-0.826c0.718-0.346,1.414-0.519,2.086-0.519c1.904,0,3.351,0.658,4.34,1.975c0.989,1.315,1.484,3.132,1.484,5.445
		c0,2.651-0.64,4.69-1.918,6.118c-1.279,1.429-3.188,2.143-5.726,2.143c-0.654,0-1.354-0.094-2.1-0.28v3.556l2.66,0.645v2.24h-8.96
		v-2.24l2.184-0.645V10.164z M63.027,11.704v7.476c0.466,0.28,1.194,0.42,2.184,0.42c1.157,0,1.983-0.396,2.478-1.189
		c0.494-0.794,0.742-2.002,0.742-3.626c0-3.08-0.934-4.62-2.8-4.62c-0.542,0-1.027,0.131-1.456,0.392
		c-0.43,0.262-0.728,0.522-0.896,0.784L63.027,11.704z"/>
	<path fill="#FFFFFF" d="M89.15,22.063l-5.543,0.196l-0.504-1.82c-0.168,0.15-0.393,0.341-0.672,0.574
		c-0.281,0.233-0.817,0.546-1.611,0.938c-0.793,0.392-1.545,0.588-2.254,0.588c-1.362,0-2.426-0.383-3.191-1.148
		c-0.766-0.765-1.148-1.848-1.148-3.248c0-3.08,2.24-4.62,6.72-4.62h1.959v-1.54c0-1.399-0.719-2.1-2.155-2.1
		c-0.43,0-0.85,0.038-1.261,0.112c-0.41,0.074-0.719,0.149-0.924,0.224l-0.279,0.084l-0.42,1.82h-2.521L75.15,7.979
		c2.258-0.746,4.285-1.12,6.076-1.12c2.129,0,3.631,0.416,4.508,1.246c0.878,0.831,1.316,2.264,1.316,4.298v6.916l2.1,0.505V22.063z
		 M78.258,17.724c0,1.12,0.55,1.68,1.652,1.68c0.448,0,0.919-0.135,1.413-0.405c0.495-0.271,0.883-0.546,1.162-0.826l0.42-0.393
		v-1.876H81.31c-1.082,0-1.861,0.146-2.338,0.435C78.497,16.627,78.258,17.09,78.258,17.724z"/>
	<path fill="#FFFFFF" d="M90.187,7.363l5.795-0.224l0.197,1.932c0.205-0.168,0.476-0.368,0.812-0.602s0.956-0.551,1.862-0.952
		c0.904-0.401,1.73-0.602,2.478-0.602c1.344,0,2.375,0.443,3.094,1.33s1.078,2.104,1.078,3.653v7.42
		c0.243,0.075,0.588,0.196,1.036,0.364c0.447,0.168,0.756,0.28,0.924,0.336v2.24h-7.561v-2.24l1.484-0.7v-6.775
		c0-0.653-0.172-1.19-0.518-1.61s-0.808-0.63-1.387-0.63c-0.521,0-1.031,0.136-1.525,0.406s-0.863,0.536-1.105,0.798l-0.365,0.392
		v7.42l1.457,0.7v2.24h-7.756v-2.24l2.156-0.7v-9.155l-2.156-0.561V7.363z"/>
	<path fill="#FFFFFF" d="M113.566,22.54c-1.549,0-2.613-0.499-3.191-1.498c-0.579-0.999-0.868-2.739-0.868-5.223v-5.235h-2.604
		v-2.66l2.604-0.364V3.695l4.116-0.756v4.62h3.92v3.024h-3.92v6.328c0,0.934,0.102,1.587,0.308,1.96
		c0.205,0.373,0.597,0.56,1.177,0.56c0.672,0,1.408-0.214,2.211-0.644l1.008,2.016C116.683,21.961,115.097,22.54,113.566,22.54z"/>
	<path fill="#FFFFFF" d="M119.642,7.363l5.796-0.224l0.252,1.932c0.149-0.168,0.354-0.373,0.616-0.615s0.732-0.569,1.414-0.98
		c0.682-0.41,1.302-0.616,1.861-0.616c0.449,0,0.883,0.042,1.303,0.126s0.732,0.173,0.938,0.267l0.28,0.111l-0.224,5.32h-2.437
		l-0.42-2.38c-0.485,0-0.979,0.131-1.483,0.392c-0.504,0.262-0.887,0.523-1.148,0.784l-0.393,0.393v7.447l2.66,0.7v2.24h-9.016
		v-2.24l2.24-0.7v-9.155l-2.24-0.561V7.363z"/>
	<path fill="#FFFFFF" d="M139.13,22.288l-4.984-12.32l-1.484-0.448v-2.24l7.477-0.14v2.38L138.57,9.8l2.492,7.84l2.38-7.756
		l-1.624-0.364v-2.24l7.531-0.14v2.38l-1.735,0.364l-4.116,11.479c-0.41,1.102-0.798,2.03-1.162,2.786
		c-0.363,0.757-0.844,1.54-1.441,2.353c-0.598,0.812-1.316,1.428-2.156,1.848s-1.792,0.63-2.855,0.63l-2.717-0.224l0.393-2.996h1.82
		c0.521,0,1.002-0.117,1.441-0.35c0.438-0.234,0.812-0.57,1.12-1.009s0.536-0.798,0.687-1.077
		C138.775,23.044,138.943,22.698,139.13,22.288z"/>
</g>
<g>
	<path fill="#CCCCCC" d="M6.664,51.52c-1.55,0-2.614-0.499-3.192-1.498c-0.579-0.999-0.868-2.739-0.868-5.223v-5.235H0v-2.66
		l2.604-0.364v-3.864l4.116-0.756v4.62h3.92v3.024H6.72v6.328c0,0.934,0.103,1.587,0.308,1.96c0.205,0.373,0.597,0.56,1.176,0.56
		c0.672,0,1.409-0.214,2.212-0.644l1.008,2.016C9.781,50.94,8.194,51.52,6.664,51.52z"/>
	<path fill="#CCCCCC" d="M12.74,36.343l6.356-0.224v12.18l1.96,0.7v2.24H12.74v-2.24l2.24-0.7v-9.155l-2.24-0.561V36.343z
		 M14.448,31.499c0-0.765,0.238-1.376,0.714-1.834c0.476-0.457,1.041-0.686,1.694-0.686c1.568,0,2.352,0.84,2.352,2.52
		c0,0.784-0.238,1.405-0.714,1.862c-0.476,0.458-1.022,0.686-1.638,0.686c-0.766,0-1.358-0.219-1.778-0.657
		S14.448,32.321,14.448,31.499z"/>
	<path fill="#CCCCCC" d="M22.764,36.343l5.796-0.224l0.196,1.932c0.205-0.168,0.476-0.368,0.812-0.602s0.956-0.551,1.862-0.952
		c0.905-0.401,1.731-0.602,2.478-0.602c1.344,0,2.375,0.443,3.094,1.33s1.078,2.104,1.078,3.653v7.42
		c0.243,0.075,0.588,0.196,1.036,0.364c0.448,0.168,0.756,0.28,0.924,0.336v2.24h-7.56v-2.24l1.484-0.7v-6.775
		c0-0.653-0.173-1.19-0.518-1.61c-0.346-0.42-0.808-0.63-1.386-0.63c-0.522,0-1.032,0.136-1.526,0.406
		c-0.495,0.271-0.864,0.536-1.106,0.798l-0.364,0.392v7.42l1.456,0.7v2.24h-7.756v-2.24l2.156-0.7v-9.155l-2.156-0.561V36.343z"/>
	<path fill="#CCCCCC" d="M45.751,51.268l-4.984-12.32l-1.484-0.448v-2.24l7.476-0.14v2.38l-1.568,0.28l2.492,7.84l2.38-7.756
		l-1.624-0.364v-2.24l7.532-0.14v2.38l-1.736,0.364l-4.116,11.479c-0.411,1.102-0.798,2.03-1.162,2.786
		c-0.364,0.757-0.845,1.54-1.442,2.353c-0.598,0.812-1.316,1.428-2.156,1.848s-1.792,0.63-2.856,0.63l-2.716-0.224l0.392-2.996h1.82
		c0.522,0,1.003-0.117,1.442-0.35c0.438-0.234,0.812-0.57,1.12-1.009s0.536-0.798,0.686-1.077
		C45.396,52.023,45.564,51.678,45.751,51.268z"/>
	<path fill="#CCCCCC" d="M58.911,39.144l-2.24-0.561v-2.24l5.88-0.224l0.252,1.568c0.149-0.131,0.35-0.299,0.602-0.504
		s0.737-0.48,1.456-0.826c0.718-0.346,1.414-0.519,2.086-0.519c1.904,0,3.351,0.658,4.34,1.975c0.989,1.315,1.484,3.132,1.484,5.445
		c0,2.651-0.64,4.69-1.918,6.118c-1.279,1.429-3.188,2.143-5.726,2.143c-0.654,0-1.354-0.094-2.1-0.28v3.556l2.66,0.645v2.24h-8.96
		v-2.24l2.184-0.645V39.144z M63.027,40.684v7.476c0.466,0.28,1.194,0.42,2.184,0.42c1.157,0,1.983-0.396,2.478-1.189
		c0.494-0.794,0.742-2.002,0.742-3.626c0-3.08-0.934-4.62-2.8-4.62c-0.542,0-1.027,0.131-1.456,0.392
		c-0.43,0.262-0.728,0.522-0.896,0.784L63.027,40.684z"/>
	<path fill="#CCCCCC" d="M89.15,51.043l-5.543,0.196l-0.504-1.82c-0.168,0.15-0.393,0.341-0.672,0.574
		c-0.281,0.233-0.817,0.546-1.611,0.938c-0.793,0.392-1.545,0.588-2.254,0.588c-1.362,0-2.426-0.383-3.191-1.148
		c-0.766-0.765-1.148-1.848-1.148-3.248c0-3.08,2.24-4.62,6.72-4.62h1.959v-1.54c0-1.399-0.719-2.1-2.155-2.1
		c-0.43,0-0.85,0.038-1.261,0.112c-0.41,0.074-0.719,0.149-0.924,0.224l-0.279,0.084l-0.42,1.82h-2.521l-0.196-4.145
		c2.258-0.746,4.285-1.12,6.076-1.12c2.129,0,3.631,0.416,4.508,1.246c0.878,0.831,1.316,2.264,1.316,4.298v6.916l2.1,0.505V51.043z
		 M78.258,46.703c0,1.12,0.55,1.68,1.652,1.68c0.448,0,0.919-0.135,1.413-0.405c0.495-0.271,0.883-0.546,1.162-0.826l0.42-0.393
		v-1.876H81.31c-1.082,0-1.861,0.146-2.338,0.435C78.497,45.606,78.258,46.069,78.258,46.703z"/>
	<path fill="#CCCCCC" d="M90.187,36.343l5.795-0.224l0.197,1.932c0.205-0.168,0.476-0.368,0.812-0.602s0.956-0.551,1.862-0.952
		c0.904-0.401,1.73-0.602,2.478-0.602c1.344,0,2.375,0.443,3.094,1.33s1.078,2.104,1.078,3.653v7.42
		c0.243,0.075,0.588,0.196,1.036,0.364c0.447,0.168,0.756,0.28,0.924,0.336v2.24h-7.561v-2.24l1.484-0.7v-6.775
		c0-0.653-0.172-1.19-0.518-1.61s-0.808-0.63-1.387-0.63c-0.521,0-1.031,0.136-1.525,0.406s-0.863,0.536-1.105,0.798l-0.365,0.392
		v7.42l1.457,0.7v2.24h-7.756v-2.24l2.156-0.7v-9.155l-2.156-0.561V36.343z"/>
	<path fill="#CCCCCC" d="M113.566,51.52c-1.549,0-2.613-0.499-3.191-1.498c-0.579-0.999-0.868-2.739-0.868-5.223v-5.235h-2.604
		v-2.66l2.604-0.364v-3.864l4.116-0.756v4.62h3.92v3.024h-3.92v6.328c0,0.934,0.102,1.587,0.308,1.96
		c0.205,0.373,0.597,0.56,1.177,0.56c0.672,0,1.408-0.214,2.211-0.644l1.008,2.016C116.683,50.94,115.097,51.52,113.566,51.52z"/>
	<path fill="#CCCCCC" d="M119.642,36.343l5.796-0.224l0.252,1.932c0.149-0.168,0.354-0.373,0.616-0.615s0.732-0.569,1.414-0.98
		c0.682-0.41,1.302-0.616,1.861-0.616c0.449,0,0.883,0.042,1.303,0.126s0.732,0.173,0.938,0.267l0.28,0.111l-0.224,5.32h-2.437
		l-0.42-2.38c-0.485,0-0.979,0.131-1.483,0.392c-0.504,0.262-0.887,0.523-1.148,0.784l-0.393,0.393v7.447l2.66,0.7v2.24h-9.016
		v-2.24l2.24-0.7v-9.155l-2.24-0.561V36.343z"/>
	<path fill="#CCCCCC" d="M139.13,51.268l-4.984-12.32l-1.484-0.448v-2.24l7.477-0.14v2.38l-1.568,0.28l2.492,7.84l2.38-7.756
		l-1.624-0.364v-2.24l7.531-0.14v2.38l-1.735,0.364l-4.116,11.479c-0.41,1.102-0.798,2.03-1.162,2.786
		c-0.363,0.757-0.844,1.54-1.441,2.353c-0.598,0.812-1.316,1.428-2.156,1.848s-1.792,0.63-2.855,0.63l-2.717-0.224l0.393-2.996h1.82
		c0.521,0,1.002-0.117,1.441-0.35c0.438-0.234,0.812-0.57,1.12-1.009s0.536-0.798,0.687-1.077
		C138.775,52.023,138.943,51.678,139.13,51.268z"/>
</g>
</svg>
